<svg width="25" height="25" viewBox="0 0 25 25" fill="none" xmlns="http://www.w3.org/2000/svg">
<g clip-path="url(#clip0)">
<path d="M12.5 24.0385C9.538 24.0385 6.845 22.9125 4.802 21.078C5.929 18.397 8.548 16.9445 12.4885 16.9445C16.433 16.9445 19.058 18.4665 20.1925 21.1535C18.1505 22.983 15.457 24.0385 12.5 24.0385ZM12.639 6.3885C15.1025 6.3885 16.9445 8.2945 16.9445 10.8275C16.9445 13.4325 15.007 15.5555 12.639 15.5555C10.271 15.5555 8.3335 13.4325 8.3335 10.8275C8.3335 8.2945 10.1755 6.3885 12.639 6.3885V6.3885ZM12.5 0C5.5965 0 0 5.5965 0 12.5C0 12.9575 0.028 13.408 0.076 13.8525C0.092 14 0.1215 14.143 0.1425 14.289C0.185 14.5835 0.229 14.877 0.2915 15.1645C0.328 15.3335 0.376 15.497 0.4195 15.663C0.487 15.9205 0.556 16.1765 0.639 16.4275C0.696 16.5985 0.7605 16.765 0.824 16.9325C0.914 17.1705 1.0085 17.405 1.1125 17.6355C1.187 17.801 1.2665 17.964 1.3485 18.1255C1.461 18.3485 1.58 18.567 1.7055 18.782C1.7965 18.938 1.888 19.0915 1.9855 19.243C2.1215 19.4545 2.2655 19.659 2.4135 19.8615C2.517 20.0035 2.6185 20.1455 2.728 20.282C2.8905 20.486 3.0635 20.68 3.238 20.873C3.348 20.995 3.454 21.12 3.569 21.237C3.7715 21.4445 3.9855 21.6375 4.2015 21.83C4.288 21.907 4.366 21.9925 4.455 22.0675L4.457 22.062C6.70599 23.962 9.55585 25.003 12.5 25C15.4403 25.0033 18.2868 23.9651 20.5345 22.0695C20.5351 22.0711 20.5356 22.0728 20.536 22.0745C20.622 22.0025 20.698 21.92 20.781 21.8455C21.002 21.6495 21.221 21.452 21.4275 21.241C21.5415 21.125 21.646 21.0015 21.755 20.881C21.931 20.6865 22.1055 20.491 22.269 20.2855C22.378 20.1495 22.4795 20.0075 22.5825 19.8665C22.731 19.664 22.876 19.4585 23.012 19.2465C23.3406 18.7316 23.6327 18.1943 23.886 17.6385C23.99 17.408 24.085 17.1735 24.1755 16.9355C24.239 16.7675 24.3035 16.601 24.36 16.4295C24.4435 16.1785 24.5125 15.9225 24.58 15.6645C24.6235 15.4985 24.6715 15.335 24.708 15.1665C24.771 14.8785 24.815 14.5845 24.8575 14.2895C24.8785 14.1435 24.908 14.001 24.924 13.8535C24.9715 13.4085 25 12.958 25 12.5C25 5.5965 19.4035 0 12.5 0Z" fill="black"/>
</g>
<defs>
<clipPath id="clip0">
<rect width="25" height="25" fill="white"/>
</clipPath>
</defs>
</svg>
